<svg width="1880" height="411" viewBox="0 0 1880 411" fill="none" xmlns="http://www.w3.org/2000/svg">
<path d="M157.93 111.058H98.2002L45.5002 299.942H105.23L157.93 111.058Z" fill="#1155CC"/>
<path d="M238.01 111.058H178.281L125.581 299.942H185.31L238.01 111.058Z" fill="#1155CC"/>
<path d="M312.8 111.058H253.07L289.205 240.258H217.034L200.28 299.942H365.5L312.8 111.058Z" fill="#1C4587"/>
<path d="M452.645 296.5L473.637 106.292H528.421L555.941 207.924L565.157 250.804L572.837 207.924L598.309 106.292H651.045L674.341 296.5H635.301L625.957 189.876L622.885 135.988L610.469 190.772L579.749 297.908H548.005L515.237 190.772L502.181 135.988L498.597 189.876L490.149 296.5H452.645ZM763.187 298.548C750.728 298.548 740.147 296.543 731.443 292.532C722.739 288.436 715.699 282.847 710.323 275.764C705.032 268.681 701.192 260.575 698.803 251.444C696.414 242.228 695.262 232.5 695.347 222.26C695.603 207.071 698.76 194.271 704.819 183.86C710.963 173.449 719.283 165.556 729.779 160.18C740.36 154.804 752.35 152.116 765.747 152.116C782.472 152.116 795.827 155.615 805.811 162.612C815.795 169.609 822.963 178.911 827.315 190.516C831.667 202.036 833.715 214.58 833.459 228.148C833.288 243.423 830.174 256.308 824.115 266.804C818.056 277.215 809.779 285.108 799.283 290.484C788.787 295.86 776.755 298.548 763.187 298.548ZM764.211 271.284C774.366 271.369 781.747 267.572 786.355 259.892C790.963 252.212 793.267 241.076 793.267 226.484C793.267 217.865 792.328 210.015 790.451 202.932C788.574 195.849 785.544 190.175 781.363 185.908C777.267 181.641 771.806 179.465 764.979 179.38C754.739 179.295 747.315 183.049 742.707 190.644C738.099 198.153 735.795 209.033 735.795 223.284C735.795 231.988 736.734 240.009 738.611 247.348C740.488 254.601 743.475 260.404 747.571 264.756C751.752 269.108 757.299 271.284 764.211 271.284ZM952.437 296.5V278.708L949.621 276.788V180.148L950.645 179.252L949.621 143.156V88.5H988.277V296.5H952.437ZM910.453 298.548C900.384 298.548 891.082 296.073 882.549 291.124C874.101 286.089 867.274 278.537 862.069 268.468C856.864 258.399 854.261 245.641 854.261 230.196C854.261 214.409 857.248 200.671 863.221 188.98C869.194 177.204 877.557 168.116 888.309 161.716C899.061 155.316 911.69 152.116 926.197 152.116C934.986 152.116 942.197 153.055 947.829 154.932C953.546 156.809 957.216 158.388 958.837 159.668L949.749 184.372C947.616 182.58 944.586 181.343 940.661 180.66C936.736 179.892 932.256 179.508 927.221 179.508C921.077 179.508 915.53 181.3 910.581 184.884C905.717 188.383 901.834 193.716 898.933 200.884C896.117 207.967 894.709 216.841 894.709 227.508C894.538 242.271 896.97 252.852 902.005 259.252C907.125 265.652 914.122 268.852 922.997 268.852C928.458 268.852 933.578 267.913 938.357 266.036C943.221 264.159 947.018 262.239 949.749 260.276L954.485 279.732C952.522 281.865 949.706 284.425 946.037 287.412C942.368 290.313 937.632 292.916 931.829 295.22C926.026 297.439 918.901 298.548 910.453 298.548ZM1049.98 296.5H1007.86L1076.73 104.628H1119.99L1188.73 296.5H1145.98L1103.86 161.844L1097.98 139.828L1091.96 161.844L1049.98 296.5ZM1046.9 256.18L1052.15 227.636H1139.45L1144.7 256.18H1046.9ZM1200.16 287.412L1204.51 259.892C1205.87 261.001 1208.65 262.452 1212.83 264.244C1217.01 266.036 1222 267.7 1227.81 269.236C1233.61 270.687 1239.58 271.412 1245.73 271.412C1253.49 271.497 1259.21 270.473 1262.88 268.34C1266.55 266.121 1268.38 262.836 1268.38 258.484C1268.38 255.497 1267.14 252.895 1264.67 250.676C1262.28 248.457 1258.99 246.409 1254.81 244.532C1250.63 242.569 1245.98 240.564 1240.86 238.516C1231.65 234.847 1224.01 230.836 1217.95 226.484C1211.98 222.132 1207.5 217.183 1204.51 211.636C1201.61 206.004 1200.2 199.433 1200.29 191.924C1200.37 183.049 1202.93 175.668 1207.97 169.78C1213.09 163.892 1219.87 159.497 1228.32 156.596C1236.85 153.609 1246.28 152.116 1256.61 152.116C1267.1 152.116 1276.02 153.097 1283.36 155.06C1290.78 156.937 1295.86 158.687 1298.59 160.308L1294.37 188.34C1292.74 186.975 1290.18 185.524 1286.69 183.988C1283.19 182.452 1279.22 181.215 1274.78 180.276C1270.43 179.252 1265.99 178.74 1261.47 178.74C1253.19 178.74 1247.13 179.764 1243.29 181.812C1239.54 183.775 1237.66 186.633 1237.66 190.388C1237.58 195.252 1239.45 198.879 1243.29 201.268C1247.22 203.572 1252.64 206.175 1259.55 209.076C1269.79 213.257 1278.37 217.439 1285.28 221.62C1292.27 225.716 1297.52 230.452 1301.02 235.828C1304.61 241.119 1306.4 247.604 1306.4 255.284C1306.4 269.449 1301.32 280.201 1291.17 287.54C1281.01 294.879 1267.31 298.548 1250.08 298.548C1242.82 298.548 1235.83 297.951 1229.09 296.756C1222.43 295.647 1216.54 294.239 1211.42 292.532C1206.39 290.825 1202.63 289.119 1200.16 287.412ZM1379.23 298.548C1370.53 298.548 1363.31 297.14 1357.6 294.324C1351.97 291.423 1347.74 286.857 1344.93 280.628C1342.19 274.399 1340.83 266.164 1340.83 255.924V180.66H1323.55V159.796C1329.86 158.004 1334.9 156.297 1338.65 154.676C1342.49 153.055 1345.27 150.239 1346.97 146.228C1347.83 144.265 1348.72 141.961 1349.66 139.316C1350.69 136.671 1351.75 133.812 1352.86 130.74C1353.97 127.668 1355.12 124.553 1356.32 121.396H1379.87V153.908H1418.14V180.66H1379.87V239.412C1379.87 248.457 1380.34 255.071 1381.28 259.252C1382.22 263.348 1383.84 265.993 1386.14 267.188C1388.45 268.297 1391.77 268.852 1396.12 268.852C1398.34 268.852 1400.9 268.596 1403.81 268.084C1406.71 267.487 1409.48 266.761 1412.13 265.908C1414.77 265.055 1416.82 264.159 1418.27 263.22L1423.39 285.108C1421.09 287.156 1417.63 289.247 1413.02 291.38C1408.41 293.428 1403.17 295.135 1397.28 296.5C1391.39 297.865 1385.37 298.548 1379.23 298.548ZM1509.36 298.548C1487.43 298.548 1470.62 292.02 1458.93 278.964C1447.24 265.908 1441.4 247.86 1441.4 224.82C1441.4 210.996 1444.04 198.623 1449.33 187.7C1454.71 176.777 1462.47 168.159 1472.63 161.844C1482.78 155.444 1495.2 152.201 1509.88 152.116C1517.3 152.031 1524.38 152.969 1531.12 154.932C1537.86 156.895 1543.88 160.095 1549.17 164.532C1554.46 168.884 1558.69 174.687 1561.84 181.94C1565.09 189.108 1566.75 197.897 1566.84 208.308C1566.84 213.513 1566.75 218.335 1566.58 222.772C1566.41 227.209 1566.02 231.007 1565.43 234.164H1462.39L1464.95 213.044H1530.48C1530.91 206.132 1530.53 200.073 1529.33 194.868C1528.22 189.577 1526 185.481 1522.68 182.58C1519.35 179.593 1514.65 178.1 1508.6 178.1C1502.71 178.1 1497.54 179.721 1493.11 182.964C1488.76 186.207 1485.38 191.796 1483 199.732C1480.69 207.583 1479.71 218.42 1480.05 232.244C1480.39 241.545 1482.18 249.012 1485.43 254.644C1488.76 260.191 1493.24 264.201 1498.87 266.676C1504.58 269.065 1511.2 270.26 1518.71 270.26C1522.8 270.26 1527.28 269.919 1532.15 269.236C1537.01 268.553 1541.62 267.657 1545.97 266.548C1550.32 265.353 1553.65 264.159 1555.96 262.964L1562.48 284.212C1559.33 286.772 1554.97 289.161 1549.43 291.38C1543.97 293.513 1537.74 295.22 1530.74 296.5C1523.83 297.865 1516.7 298.548 1509.36 298.548ZM1633.17 203.572L1631.37 176.18C1632.91 172.084 1635.73 168.201 1639.82 164.532C1643.92 160.777 1648.78 157.748 1654.41 155.444C1660.05 153.055 1665.98 151.86 1672.21 151.86C1674.77 151.86 1677.11 151.988 1679.25 152.244C1681.46 152.5 1683.09 152.927 1684.11 153.524V191.54C1682.91 190.772 1681.08 190.004 1678.61 189.236C1676.13 188.468 1672.38 188.084 1667.34 188.084C1661.2 188.084 1655.91 188.98 1651.47 190.772C1647.03 192.479 1643.28 194.569 1640.21 197.044C1637.22 199.433 1634.87 201.609 1633.17 203.572ZM1596.43 296.5V154.036H1630.22L1632.4 176.308L1635.47 183.092V296.5H1596.43ZM1741.95 298.548C1732.91 298.548 1724.97 296.713 1718.14 293.044C1711.32 289.375 1705.98 284.255 1702.14 277.684C1698.39 271.113 1696.51 263.476 1696.51 254.772C1696.51 246.068 1698.86 238.601 1703.55 232.372C1708.33 226.143 1714.77 221.279 1722.88 217.78C1728.43 215.476 1734.48 213.684 1741.06 212.404C1747.71 211.124 1754.32 210.228 1760.9 209.716C1767.55 209.204 1773.74 208.948 1779.46 208.948L1785.98 217.012L1779.46 229.556C1776.38 229.556 1772.93 229.769 1769.09 230.196C1765.25 230.623 1761.54 231.263 1757.95 232.116C1754.45 232.884 1751.51 233.78 1749.12 234.804C1745.79 236.34 1742.8 238.388 1740.16 240.948C1737.6 243.508 1736.32 247.433 1736.32 252.724C1736.32 259.636 1738.24 264.756 1742.08 268.084C1745.92 271.327 1750.87 272.948 1756.93 272.948C1760.08 272.948 1763.2 272.521 1766.27 271.668C1769.43 270.815 1772.2 269.833 1774.59 268.724C1776.98 267.529 1778.6 266.42 1779.46 265.396L1786.24 273.46L1781.5 284.468C1777.66 287.881 1772.37 291.081 1765.63 294.068C1758.98 297.055 1751.08 298.548 1741.95 298.548ZM1818.5 296.5H1781.5V275.252H1779.46V198.452C1779.46 191.199 1777.54 186.463 1773.7 184.244C1769.86 181.94 1764.35 180.788 1757.18 180.788C1751.81 180.788 1746.18 181.257 1740.29 182.196C1734.48 183.135 1728.98 184.372 1723.78 185.908C1718.57 187.444 1714.22 189.108 1710.72 190.9L1702.27 166.324C1705.17 164.617 1709.7 162.612 1715.84 160.308C1721.98 158.004 1729.02 155.999 1736.96 154.292C1744.9 152.5 1752.87 151.604 1760.9 151.604C1774.04 151.604 1784.83 153.14 1793.28 156.212C1801.81 159.284 1808.13 164.489 1812.22 171.828C1816.4 179.167 1818.5 189.321 1818.5 202.292V296.5Z" fill="#424242"/>
</svg>
